# xmcd
#
# Track frame offsets:
#	150
#	19459
#	42935
#	74662
#	90619
#	111952
#	136639
#	156767
#	183292
#	210489
#	229745
#
# Disc length: 3501 seconds
#
# Revision: 1
# Processed by: cddbd v1.5.2PL0 Copyright (c) Steve Scherf et al.
# Submitted via: audiograbber 1.83.01
#
DISCID=920dab0b
DTITLE=Blues Company - Hot And Ready To Serve
DYEAR=2007
DGENRE=Blues
TTITLE0=Til The Lights Go Out
TTITLE1=My Guitar And Me
TTITLE2=Kids
TTITLE3=Hollywood
TTITLE4=Soon Or Later
TTITLE5=Plastic People
TTITLE6=Shake It Don't Break It
TTITLE7=Dark Day
TTITLE8=Doin' It Right
TTITLE9=The People
TTITLE10=Hideaway/Peter Gunn Theme
EXTD=
EXTT0=
EXTT1=
EXTT2=
EXTT3=
EXTT4=
EXTT5=
EXTT6=
EXTT7=
EXTT8=
EXTT9=
EXTT10=
PLAYORDER=
